<svg width="45" height="45" viewBox="0 0 45 45" fill="none" xmlns="http://www.w3.org/2000/svg">
<path d="M2.42437 23.8256L9.92437 31.3256C10.0973 31.5047 10.3042 31.6475 10.533 31.7458C10.7617 31.8441 11.0078 31.8958 11.2567 31.8979C11.5057 31.9001 11.7526 31.8527 11.983 31.7584C12.2135 31.6641 12.4228 31.5249 12.5989 31.3488C12.7749 31.1728 12.9141 30.9634 13.0084 30.733C13.1027 30.5026 13.1501 30.2557 13.148 30.0067C13.1458 29.7578 13.0941 29.5117 12.9958 29.283C12.8975 29.0542 12.7547 28.8473 12.5756 28.6743L6.40125 22.5L12.5756 16.3256C12.7547 16.1526 12.8975 15.9457 12.9958 15.717C13.0941 15.4882 13.1458 15.2422 13.148 14.9932C13.1501 14.7443 13.1027 14.4974 13.0084 14.2669C12.9141 14.0365 12.7749 13.8272 12.5989 13.6511C12.4228 13.4751 12.2135 13.3358 11.983 13.2416C11.7526 13.1473 11.5057 13.0998 11.2567 13.102C11.0078 13.1042 10.7617 13.1559 10.533 13.2542C10.3042 13.3524 10.0973 13.4953 9.92437 13.6743L2.42437 21.1743C2.07286 21.526 1.8754 22.0028 1.8754 22.5C1.8754 22.9972 2.07286 23.474 2.42437 23.8256Z" fill="#029DE0"/>
<path d="M35.0756 13.6743C34.9027 13.4953 34.6958 13.3524 34.467 13.2542C34.2383 13.1559 33.9922 13.1042 33.7433 13.102C33.4943 13.0998 33.2474 13.1473 33.017 13.2416C32.7865 13.3358 32.5772 13.4751 32.4011 13.6511C32.2251 13.8272 32.0859 14.0365 31.9916 14.2669C31.8973 14.4974 31.8499 14.7443 31.852 14.9932C31.8542 15.2422 31.9059 15.4882 32.0042 15.717C32.1025 15.9457 32.2453 16.1526 32.4244 16.3256L38.5988 22.5L32.4244 28.6743C32.2453 28.8473 32.1025 29.0542 32.0042 29.283C31.9059 29.5117 31.8542 29.7578 31.852 30.0067C31.8499 30.2557 31.8973 30.5026 31.9916 30.733C32.0859 30.9634 32.2251 31.1728 32.4011 31.3488C32.5772 31.5249 32.7865 31.6641 33.017 31.7584C33.2474 31.8527 33.4943 31.9001 33.7433 31.8979C33.9922 31.8958 34.2383 31.8441 34.467 31.7458C34.6958 31.6475 34.9027 31.5047 35.0756 31.3256L42.5756 23.8256C42.9271 23.474 43.1246 22.9972 43.1246 22.5C43.1246 22.0028 42.9271 21.526 42.5756 21.1743L35.0756 13.6743Z" fill="#029DE0"/>
<path d="M24.4481 8.86128L16.9481 35.1113C16.8116 35.5892 16.8704 36.1017 17.1116 36.5363C17.3528 36.9708 17.7566 37.2918 18.2344 37.4288C18.4024 37.4752 18.5757 37.4991 18.75 37.5C19.1575 37.4997 19.5537 37.3667 19.8789 37.1211C20.204 36.8755 20.4402 36.5307 20.5519 36.1388L28.0519 9.88879C28.1301 9.64907 28.1591 9.39605 28.1372 9.14486C28.1153 8.89367 28.043 8.64947 27.9246 8.42687C27.8062 8.20427 27.6441 8.00784 27.448 7.84933C27.2519 7.69082 27.0259 7.57349 26.7834 7.50435C26.5409 7.43522 26.287 7.4157 26.0368 7.44697C25.7866 7.47823 25.5453 7.55964 25.3272 7.68631C25.1092 7.81299 24.919 7.98234 24.768 8.18422C24.6169 8.38611 24.5081 8.61639 24.4481 8.86128Z" fill="#029DE0"/>
</svg>
