<svg width="46" height="45" viewBox="0 0 46 45" fill="none" xmlns="http://www.w3.org/2000/svg">
<path d="M27.2438 41.1221C26.87 41.2152 26.4889 41.298 26.1107 41.3676C25.1219 41.5515 24.4681 42.5025 24.651 43.4922C24.7414 43.9791 25.0179 44.3846 25.3933 44.6494C25.7803 44.9217 26.2727 45.0447 26.7745 44.9513C27.225 44.8677 27.679 44.7694 28.1245 44.6583C29.1009 44.4152 29.6958 43.426 29.4522 42.4501C29.2092 41.4732 28.2208 40.8789 27.2438 41.1221Z" fill="#029DE0"/>
<path d="M40.7187 16.697C40.8463 17.0817 41.09 17.3958 41.3978 17.6128C41.8542 17.9342 42.4514 18.0424 43.0214 17.8539C43.9768 17.5367 44.4945 16.5064 44.1784 15.5513C44.0344 15.116 43.8746 14.6793 43.7044 14.254C43.3306 13.3196 42.2707 12.8646 41.3357 13.2384C40.4018 13.612 39.9467 14.6722 40.3207 15.607C40.4638 15.9644 40.5977 16.3313 40.7187 16.697Z" fill="#029DE0"/>
<path d="M33.1647 38.5202C32.8432 38.7325 32.5115 38.9379 32.1772 39.1303C31.3053 39.6333 31.0066 40.7479 31.5094 41.6195C31.6459 41.8566 31.8277 42.0504 32.0371 42.1985C32.5992 42.594 33.3627 42.6532 33.9983 42.2871C34.3956 42.0579 34.7908 41.8141 35.1736 41.5609C36.0129 41.0064 36.244 39.8758 35.6892 39.0361C35.1344 38.1961 34.0043 37.9653 33.1647 38.5202Z" fill="#029DE0"/>
<path d="M45.3114 21.7866C45.2718 20.7809 44.4246 19.998 43.4186 20.0373C42.4138 20.077 41.6304 20.9244 41.6698 21.9298C41.6849 22.3142 41.6888 22.7043 41.68 23.0883C41.6658 23.7191 41.9743 24.2813 42.4537 24.6192C42.7393 24.8203 43.0859 24.942 43.4617 24.9506C44.4675 24.9729 45.301 24.1752 45.3233 23.1689C45.3334 22.7101 45.3296 22.2452 45.3114 21.7866Z" fill="#029DE0"/>
<path d="M40.4212 33.7265C39.6147 33.1214 38.4737 33.2857 37.8697 34.0907C37.6383 34.399 37.3947 34.7035 37.1453 34.9967C36.4934 35.7626 36.5855 36.913 37.3514 37.5653C37.395 37.6023 37.4392 37.6363 37.485 37.6683C38.2464 38.2051 39.3046 38.0817 39.9202 37.3593C40.218 37.0095 40.5084 36.6458 40.7849 36.2775C41.389 35.4725 41.2255 34.3307 40.4212 33.7265Z" fill="#029DE0"/>
<path d="M43.1003 27.1394C42.1401 26.8383 41.1174 27.3728 40.8166 28.3331C40.7014 28.6999 40.5737 29.0686 40.436 29.4296C40.1334 30.2243 40.4233 31.0987 41.0878 31.5673C41.2097 31.6529 41.344 31.7255 41.4899 31.7807C42.4301 32.1395 43.4829 31.6678 43.8413 30.7272C44.0049 30.298 44.1567 29.8594 44.294 29.4232C44.5946 28.4628 44.0604 27.4404 43.1003 27.1394Z" fill="#029DE0"/>
<path d="M19.2929 41.3839C17.6637 41.0914 16.1009 40.5933 14.6189 39.8986C14.6014 39.8894 14.5857 39.879 14.5673 39.8706C14.218 39.7062 13.8694 39.5302 13.5315 39.3462C13.5303 39.3448 13.5282 39.3439 13.5263 39.3432C12.9063 39.0017 12.3012 38.624 11.7134 38.2101C3.14141 32.1718 1.08037 20.2854 7.11908 11.7135C8.43218 9.85029 10.0212 8.29583 11.7928 7.06381C11.8146 7.04861 11.8364 7.03351 11.8581 7.01821C18.1007 2.71684 26.5773 2.42696 33.206 6.84701L31.7823 8.90405C31.3865 9.47661 31.63 9.89384 32.3229 9.83148L38.5071 9.27783C39.2008 9.21547 39.6157 8.61534 39.4291 7.94534L37.7685 1.96198C37.5826 1.2912 37.1066 1.21091 36.7104 1.78337L35.2834 3.84529C30.4188 0.579798 24.5842 -0.665381 18.7931 0.33883C18.2098 0.439777 17.6348 0.563331 17.0676 0.707151C17.0632 0.707931 17.0597 0.708418 17.0562 0.709198C17.0342 0.714557 17.012 0.72167 16.9907 0.727614C11.9969 2.01001 7.6399 4.92258 4.5309 9.07818C4.50469 9.10926 4.4777 9.13966 4.45295 9.17347C4.34956 9.31271 4.24696 9.45517 4.1465 9.59763C3.98222 9.83109 3.82027 10.0704 3.66534 10.3097C3.64595 10.3386 3.63114 10.3679 3.61419 10.397C1.04861 14.3726 -0.188875 18.9689 0.0233485 23.6481C0.0238357 23.6635 0.0229588 23.679 0.0233485 23.6948C0.0439082 24.1519 0.0801557 24.6153 0.129363 25.0715C0.131994 25.1009 0.138522 25.1288 0.143491 25.1582C0.194355 25.617 0.258178 26.0768 0.338175 26.5365C1.15121 31.227 3.36387 35.4478 6.67944 38.732C6.68714 38.7397 6.69513 38.7481 6.70292 38.7561C6.70565 38.7591 6.70867 38.7607 6.7113 38.7635C7.60209 39.6421 8.57103 40.4548 9.61432 41.1895C12.3446 43.1134 15.3848 44.3851 18.6498 44.971C19.6404 45.149 20.5868 44.4895 20.7645 43.4994C20.9421 42.5085 20.2833 41.5614 19.2929 41.3839Z" fill="#029DE0"/>
<path d="M21.546 7.94226C20.7312 7.94226 20.0711 8.6029 20.0711 9.41662V24.1053L33.5051 31.0499C33.7213 31.1619 33.9528 31.2146 34.1806 31.2146C34.7142 31.2146 35.2296 30.924 35.4916 30.4171C35.8653 29.6935 35.5825 28.8045 34.8589 28.4309L23.0193 22.3099V9.41662C23.0192 8.6029 22.36 7.94226 21.546 7.94226Z" fill="#029DE0"/>
</svg>
