<svg width="45" height="45" viewBox="0 0 45 45" fill="none" xmlns="http://www.w3.org/2000/svg">
<path d="M9.46688 25.875C8.72859 25.5185 7.90453 25.3125 7.03125 25.3125C3.92977 25.3125 1.40625 27.836 1.40625 30.9375C1.40625 34.039 3.92977 36.5625 7.03125 36.5625C8.9775 36.5625 10.6952 35.5683 11.7056 34.0615L17.0191 36.7214C16.9277 37.1229 16.875 37.5398 16.875 37.9688C16.875 41.0702 19.3985 43.5938 22.5 43.5938C25.6015 43.5938 28.125 41.0702 28.125 37.9688C28.125 36.803 27.7685 35.7195 27.1582 34.8202L34.6247 27.0134C35.5612 27.708 36.7158 28.125 37.9688 28.125C41.0702 28.125 43.5938 25.6015 43.5938 22.5C43.5938 19.3985 41.0702 16.875 37.9688 16.875C36.6708 16.875 35.4783 17.3208 34.5248 18.0619L26.9381 10.4752C27.6792 9.52172 28.125 8.32922 28.125 7.03125C28.125 3.92977 25.6015 1.40625 22.5 1.40625C19.3985 1.40625 16.875 3.92977 16.875 7.03125C16.875 7.45875 16.927 7.8743 17.0184 8.27508L12.0319 10.092C11.0967 8.27719 9.20883 7.03125 7.03125 7.03125C3.92977 7.03125 1.40625 9.55477 1.40625 12.6562C1.40625 15.7577 3.92977 18.2812 7.03125 18.2812C7.83141 18.2812 8.59148 18.1111 9.28125 17.808L11.8695 22.1639L9.46688 25.875ZM7.03125 35.1562C4.70461 35.1562 2.8125 33.2641 2.8125 30.9375C2.8125 28.6109 4.70461 26.7188 7.03125 26.7188C9.35789 26.7188 11.25 28.6109 11.25 30.9375C11.25 33.2641 9.35789 35.1562 7.03125 35.1562ZM12.3321 32.8015C12.5381 32.2172 12.6562 31.5914 12.6562 30.9375C12.6562 29.2127 11.8744 27.6687 10.6488 26.6365L12.671 23.5132L18.7678 33.7725C18.2545 34.2295 17.8249 34.7766 17.5064 35.3918L12.3321 32.8015ZM22.5 12.6562C23.798 12.6562 24.9905 12.2105 25.9439 11.4694L33.5313 19.0568C33.0764 19.6418 32.7361 20.3175 32.5399 21.053L28.1229 20.4455C28.1222 20.4272 28.125 20.4089 28.125 20.3906C28.125 17.2891 25.6015 14.7656 22.5 14.7656C20.5538 14.7656 18.8353 15.7598 17.8256 17.2666L16.9868 16.8476L20.0651 12.0938C20.8027 12.4502 21.6267 12.6562 22.5 12.6562ZM23.2031 32.3923V25.9664C25.4883 25.6795 27.3473 24.0188 27.9295 21.8377L32.3466 22.4452C32.3466 22.4634 32.3438 22.4817 32.3438 22.5C32.3438 23.843 32.8177 25.0755 33.6059 26.0438L26.223 33.7634C25.3955 33.03 24.3541 32.5371 23.2031 32.3923ZM22.5 16.1719C24.8266 16.1719 26.7188 18.064 26.7188 20.3906C26.7188 22.7173 24.8266 24.6094 22.5 24.6094C20.1734 24.6094 18.2812 22.7173 18.2812 20.3906C18.2812 18.064 20.1734 16.1719 22.5 16.1719ZM17.1991 18.5266C16.9931 19.1109 16.875 19.7367 16.875 20.3906C16.875 23.2537 19.0266 25.6191 21.7969 25.9671V32.393C21.1303 32.4766 20.501 32.6763 19.928 32.9723L13.5239 22.1955L16.2176 18.0359L17.1991 18.5266ZM22.5 42.1875C20.1734 42.1875 18.2812 40.2954 18.2812 37.9688C18.2812 35.6421 20.1734 33.75 22.5 33.75C24.8266 33.75 26.7188 35.6421 26.7188 37.9688C26.7188 40.2954 24.8266 42.1875 22.5 42.1875ZM37.9688 18.2812C40.2954 18.2812 42.1875 20.1734 42.1875 22.5C42.1875 24.8266 40.2954 26.7188 37.9688 26.7188C35.6421 26.7188 33.75 24.8266 33.75 22.5C33.75 20.1734 35.6421 18.2812 37.9688 18.2812ZM22.5 2.8125C24.8266 2.8125 26.7188 4.70461 26.7188 7.03125C26.7188 9.35789 24.8266 11.25 22.5 11.25C20.1734 11.25 18.2812 9.35789 18.2812 7.03125C18.2812 4.70461 20.1734 2.8125 22.5 2.8125ZM17.4994 9.59555C17.8432 10.2628 18.3136 10.8527 18.8824 11.3323L15.7212 16.2148L12.3321 14.5202C12.5381 13.9359 12.6562 13.3102 12.6562 12.6562C12.6562 12.2288 12.6042 11.8132 12.5128 11.4124L17.4994 9.59555ZM2.8125 12.6562C2.8125 10.3296 4.70461 8.4375 7.03125 8.4375C9.35789 8.4375 11.25 10.3296 11.25 12.6562C11.25 14.9829 9.35789 16.875 7.03125 16.875C4.70461 16.875 2.8125 14.9829 2.8125 12.6562ZM10.4871 17.0852C10.9582 16.7168 11.3716 16.278 11.7056 15.7802L14.952 17.403L12.7223 20.8463L10.4871 17.0852Z" fill="#029DE0"/>
</svg>
