<svg width="84" height="92" viewBox="0 0 84 92" fill="none" xmlns="http://www.w3.org/2000/svg">
<mask id="mask0_1043_554" style="mask-type:luminance" maskUnits="userSpaceOnUse" x="11" y="32" width="61" height="57">
<path d="M12.0599 32.1361L11.8342 88.3517L71.1364 88.5897L71.3621 32.3742L12.0599 32.1361Z" fill="white"/>
</mask>
<g mask="url(#mask0_1043_554)">
<path d="M22.6631 78.0595V75.0078C22.6806 73.8535 21.9461 73.0841 20.7656 73.0666C20.1448 73.0578 19.4977 73.2414 19.0517 73.9235C18.7195 73.3814 18.1948 73.0578 17.4428 73.0491C16.9269 73.0491 16.4198 73.1977 16.0175 73.7661V73.1628H14.9595L14.942 78.0332H16.0088L16.0175 75.34C16.0175 74.4919 16.4897 74.0459 17.2155 74.0547C17.915 74.0547 18.2735 74.5181 18.2735 75.34V78.0507H19.3316V75.3488C19.349 74.5006 19.8387 74.0634 20.5383 74.0634C21.264 74.0634 21.605 74.5268 21.605 75.3488V78.0595H22.6631ZM38.4987 73.2589H36.7673V71.7724H35.7006V73.2414H34.7125V74.2033H35.7006L35.6918 76.4243C35.6918 77.5523 36.1203 78.2256 37.3707 78.2343C37.8254 78.2343 38.3588 78.0944 38.6998 77.8671L38.3937 76.9577C38.079 77.1413 37.7292 77.2288 37.4581 77.2288C36.9335 77.2288 36.7586 76.8965 36.7586 76.4068V74.212H38.4987V73.2414V73.2589ZM47.5314 73.1715C46.9193 73.1715 46.5258 73.4513 46.246 73.8798V73.2852H45.1967L45.1792 78.1556H46.2372L46.246 75.4275C46.246 74.623 46.5957 74.1771 47.2865 74.1771C47.4964 74.1771 47.7237 74.212 47.9511 74.2995L48.2834 73.3027C48.0473 73.2065 47.7412 73.1715 47.5314 73.1628M33.8818 73.6174C33.3746 73.2764 32.6751 73.1015 31.8969 73.1015C30.6639 73.1015 29.8682 73.6874 29.8682 74.6493C29.8682 75.445 30.4541 75.9346 31.5383 76.092L32.0368 76.162C32.6139 76.2494 32.8937 76.3981 32.885 76.6779C32.885 77.0539 32.5002 77.2637 31.7745 77.2637C31.04 77.2637 30.5153 77.0277 30.1568 76.7478L29.6584 77.5698C30.2355 77.9982 30.97 78.2081 31.7657 78.2081C33.1735 78.2081 33.9867 77.5523 33.9954 76.6254C33.9954 75.7685 33.3571 75.3225 32.2991 75.1652L31.8007 75.0952C31.346 75.034 30.9787 74.9378 30.9787 74.6143C30.9787 74.2558 31.3285 74.0459 31.9056 74.0459C32.5264 74.0459 33.1298 74.282 33.4184 74.4656L33.8818 73.6174ZM62.2477 73.224C61.6356 73.224 61.2422 73.5038 60.9623 73.9322V73.3376H59.913L59.8955 78.2081H60.9536L60.9623 75.4799C60.9623 74.6755 61.3121 74.2295 62.0029 74.2295C62.2128 74.2295 62.4401 74.2645 62.6675 74.3519L62.9997 73.3551C62.7636 73.2589 62.4576 73.224 62.2477 73.2152M19.4627 84.3465H17.7926L17.7751 88.2376H16.7083L16.7258 84.329H15.7465V83.3584H16.7258V82.5365C16.7258 81.5659 17.2242 80.7876 18.361 80.7964C18.9293 80.7964 19.3578 80.9538 19.7163 81.1636L19.3403 82.0555C19.0955 81.9069 18.7544 81.7932 18.4309 81.7932C18.0199 81.7932 17.7926 82.0643 17.7926 82.5452V83.3671H19.454V84.3377L19.4627 84.3465ZM25.0589 85.8417C25.0589 84.3815 23.9485 83.2797 22.4445 83.271C20.9405 83.271 19.8212 84.364 19.8212 85.8242C19.8212 87.2845 20.923 88.3863 22.427 88.395C23.931 88.395 25.0502 87.302 25.0589 85.8417ZM20.9142 85.8242C20.9142 84.9061 21.5788 84.2678 22.4445 84.2678C23.3101 84.2678 23.9747 84.9149 23.9659 85.833C23.9659 86.7511 23.3014 87.3894 22.427 87.3894C21.5613 87.3894 20.9055 86.7424 20.9142 85.8242ZM30.4453 83.4196H29.3785L29.3698 86.1215C29.3698 87.0659 28.8452 87.4069 28.1719 87.4069C27.5073 87.4069 26.9827 87.0572 26.9914 86.1128V83.4021H25.9334V86.209C25.9159 87.7567 27.0264 88.4038 28.1631 88.4038C29.2999 88.4038 30.4191 87.7742 30.4279 86.2265V83.4196H30.4453ZM36.2689 85.2559C36.2689 84.1191 35.4557 83.3147 34.3015 83.3147C33.8031 83.3147 33.1997 83.4546 32.8063 84.0317V83.4371H31.7482L31.7307 88.3076H32.7975L32.8063 85.6144C32.8063 84.7837 33.3834 84.329 34.0742 84.3377C34.7824 84.3377 35.2021 84.8012 35.2021 85.6144V88.3251H36.2602V85.2646M48.2659 83.507H47.2078V84.0929C46.8756 83.6557 46.3684 83.3759 45.6776 83.3671C44.3135 83.3671 43.238 84.4339 43.238 85.9204C43.238 87.4069 44.296 88.4825 45.6601 88.4912C46.3509 88.4912 46.8581 88.2201 47.1904 87.7829V88.3688H48.2484L48.2659 83.4983V83.507ZM44.3223 85.9204C44.3223 85.0635 44.8819 84.364 45.8 84.364C46.6744 84.364 47.2603 85.0373 47.2603 85.9292C47.2603 86.8211 46.6657 87.4856 45.7825 87.4856C44.8644 87.4856 44.3135 86.7686 44.3223 85.9204ZM61.4957 85.9904C61.4957 84.5301 60.3852 83.4284 58.8812 83.4196C57.3773 83.4196 56.258 84.5126 56.258 85.9729C56.258 87.4332 57.3597 88.5349 58.8637 88.5437C60.3677 88.5437 61.487 87.4507 61.4957 85.9904ZM57.351 85.9729C57.351 85.0548 58.0156 84.4164 58.8812 84.4164C59.7469 84.4164 60.4115 85.0635 60.4027 85.9816C60.4027 86.8998 59.7382 87.5381 58.8637 87.5381C57.9893 87.5381 57.3423 86.891 57.3423 85.9729M66.9958 85.3783C66.9958 84.2416 66.1913 83.4371 65.0283 83.4371C64.5299 83.4371 63.9266 83.577 63.5331 84.1541V83.5595H62.4751L62.4576 88.43H63.5244L63.5331 85.7368C63.5331 84.9061 64.1102 84.4514 64.801 84.4602C65.5093 84.4602 65.929 84.9236 65.929 85.7455V88.4475H66.9871V85.387M52.9003 83.5158H51.1864V82.0468H50.1284V83.507H49.149V84.4602H50.1284L50.1196 86.6637C50.1196 87.7829 50.5481 88.4475 51.7897 88.4562C52.2444 88.4562 52.7691 88.3163 53.1014 88.089L52.8041 87.1883C52.4893 87.372 52.1483 87.4594 51.8772 87.4594C51.3525 87.4594 51.1777 87.1359 51.1864 86.6462V84.4689H52.909V83.507L52.9003 83.5158ZM42.2499 81.5221L42.2324 85.9117V88.3513H41.1656V87.7567C40.8334 88.1939 40.3174 88.465 39.6267 88.465C38.2626 88.465 37.1958 87.3894 37.2046 85.8942C37.2133 84.399 38.2888 83.3409 39.6529 83.3497C40.3437 83.3497 40.8508 83.6295 41.1919 84.0667V81.5221H42.2587H42.2499ZM39.7578 87.4594C40.6323 87.4594 41.2269 86.7948 41.2269 85.9117C41.2269 85.0285 40.641 84.3465 39.7666 84.3465C38.8484 84.3465 38.2888 85.046 38.2801 85.9029C38.2801 86.7599 38.831 87.4594 39.7491 87.4681M55.2699 83.5333H54.2031L54.1857 88.4038H55.2524L55.2699 83.5333ZM54.7365 81.1811C54.308 81.1811 53.9933 81.5046 53.9933 81.9331C53.9933 82.3528 54.308 82.6764 54.7365 82.6764C55.1562 82.6764 55.4885 82.3528 55.4885 81.9331C55.4885 81.5046 55.1562 81.1724 54.7365 81.1724M48.5719 75.7248C48.5719 77.2025 49.595 78.2868 51.1602 78.2868C51.8947 78.2868 52.3844 78.1294 52.9177 77.7097L52.4106 76.8528C52.0083 77.1326 51.5974 77.29 51.1339 77.29C50.2858 77.2812 49.6737 76.6604 49.6737 75.7248C49.6737 74.7892 50.3033 74.1771 51.1427 74.1771C51.5974 74.1771 52.0171 74.3345 52.4106 74.623L52.9265 73.7661C52.4018 73.3464 51.9122 73.1802 51.1777 73.1802C49.6125 73.1802 48.5807 74.247 48.5719 75.7248ZM58.4877 75.7685V73.3376H57.4384V73.9235C57.0974 73.4863 56.5903 73.2065 55.8995 73.2065C54.5354 73.2065 53.4599 74.2645 53.4599 75.751C53.4599 77.2375 54.5179 78.313 55.882 78.313C56.5728 78.313 57.0799 78.042 57.421 77.6048V78.1994H58.479V75.7685H58.4877ZM54.5529 75.751C54.5529 74.8941 55.1213 74.1946 56.0307 74.2033C56.9051 74.2033 57.4909 74.8766 57.4909 75.7685C57.4909 76.6517 56.8963 77.325 56.0219 77.325C55.1038 77.325 54.5529 76.6167 54.5529 75.7598M41.7865 73.154C40.3612 73.154 39.3643 74.1858 39.3556 75.6985C39.3556 77.2463 40.3874 78.2606 41.8389 78.2606C42.5734 78.2606 43.2467 78.0857 43.8413 77.5873L43.3254 76.8003C42.9145 77.1238 42.3986 77.3075 41.9089 77.3075C41.2269 77.3075 40.606 76.9839 40.4574 76.1095L44.0687 76.127C44.0774 75.9958 44.0949 75.8647 44.0949 75.716C44.0949 74.1946 43.1593 73.154 41.7952 73.154M41.769 74.0984C42.451 74.0984 42.8882 74.5268 42.9932 75.2876H40.4661C40.5798 74.5793 41.0082 74.0984 41.7602 74.0984M68.3161 75.8122L68.3336 71.4227H67.2756L67.2668 73.9672C66.9346 73.53 66.4274 73.2502 65.7366 73.2502C64.3725 73.2502 63.297 74.3082 63.2883 75.7947C63.2883 77.2812 64.3463 78.3568 65.7104 78.3568C66.4012 78.3568 66.9084 78.0857 67.2494 77.6485V78.2431H68.3074V75.8122H68.3161ZM64.3725 75.7947C64.3725 74.9378 64.9409 74.2383 65.859 74.247C66.7335 74.247 67.3193 74.9203 67.3193 75.8122C67.3193 76.6954 66.7247 77.3687 65.8503 77.3687C64.9322 77.3687 64.3813 76.6604 64.3813 75.8035M28.6266 75.6636V73.2327H27.5773V73.8186C27.245 73.3814 26.7291 73.1015 26.0383 73.1015C24.6742 73.1015 23.5987 74.1596 23.5987 75.6461C23.5987 77.1326 24.6567 78.2081 26.0208 78.2081C26.7116 78.2081 27.2275 77.937 27.5598 77.4998V78.0944H28.6178V75.6636H28.6266ZM24.683 75.6461C24.683 74.7892 25.2513 74.0896 26.1695 74.0984C27.0439 74.0984 27.6297 74.7717 27.6297 75.6636C27.6297 76.5467 27.0351 77.22 26.1607 77.22C25.2426 77.22 24.6917 76.5118 24.6917 75.6548" fill="#231F20"/>
<path d="M33.6641 36.136L33.5484 64.9564L49.585 65.0208L49.7007 36.2004L33.6641 36.136Z" fill="#F26522"/>
<path d="M34.6338 50.5592C34.66 44.7094 37.4145 39.5154 41.6903 36.1751C38.5862 33.7093 34.6513 32.2315 30.3842 32.214C20.2585 32.1703 12.0215 40.3461 11.9865 50.4718C11.9428 60.5887 20.1186 68.8344 30.2443 68.8694C34.5202 68.8869 38.455 67.4354 41.5854 64.9958C37.3358 61.6205 34.6163 56.409 34.6426 50.5592" fill="#E51B24"/>
<path d="M69.4967 62.0577V61.4631H69.7327V61.3407H69.1294V61.4631H69.3655V62.0577H69.4879H69.4967ZM70.6771 62.0577V61.3494H70.4935L70.2749 61.8391L70.065 61.3494H69.8814V62.0577H70.0126V61.5243L70.2137 61.9878H70.3536L70.5547 61.5243V62.0665H70.6859L70.6771 62.0577Z" fill="#231F20"/>
<path d="M71.2892 50.7079C71.2455 60.8336 63.0086 69.0006 52.8916 68.9656C48.6157 68.9481 44.6896 67.4703 41.5854 65.0045C45.8613 61.6642 48.6157 56.4702 48.6419 50.6204C48.6682 44.7706 45.9487 39.5591 41.6991 36.1839C44.8208 33.7443 48.7644 32.2927 53.0402 32.3102C63.1659 32.3539 71.333 40.5909 71.2892 50.7079Z" fill="#F99F1C"/>
</g>
<mask id="mask1_1043_554" style="mask-type:luminance" maskUnits="userSpaceOnUse" x="5" y="14" width="74" height="80">
<path d="M5.32353 14L5 93.7027L78.4594 94L78.7829 14.1312L45.2842 14H5.32353Z" fill="white"/>
</mask>
<g mask="url(#mask1_1043_554)">
<path d="M75.5476 14.1224H74.8918L74.8655 19.911H75.5213L75.5301 17.7687C75.5301 17.5938 75.5564 17.4364 75.6176 17.2965C75.6788 17.1566 75.7575 17.0342 75.8624 16.938C75.9673 16.8418 76.081 16.7631 76.2209 16.7107C76.3608 16.6582 76.5007 16.632 76.6581 16.6407C76.9904 16.6407 77.2527 16.7369 77.4363 16.938C77.6199 17.1304 77.7074 17.4102 77.7074 17.76V19.9198H78.3632V17.5414C78.3719 17.314 78.337 17.1042 78.2583 16.9118C78.1796 16.7194 78.0746 16.562 77.9347 16.4309C77.7948 16.2997 77.6287 16.1948 77.4363 16.1161C77.2439 16.0461 77.0253 16.0024 76.7893 16.0024C76.6756 16.0024 76.5619 16.0111 76.4482 16.0286C76.3346 16.0461 76.2209 16.0811 76.1072 16.1248C76.0023 16.1685 75.8973 16.2298 75.7924 16.2997C75.6962 16.3784 75.6088 16.4658 75.5301 16.5708V14.1224H75.5476ZM73.8337 16.0898H72.2248V14.8832H71.5603V16.0811H70.7471V16.6757H71.5603V18.5557C71.5603 18.8005 71.5865 19.0104 71.6477 19.194C71.7089 19.3776 71.7963 19.5263 71.91 19.64C72.0237 19.7624 72.1636 19.8498 72.321 19.9023C72.4872 19.9635 72.6708 19.9897 72.8719 19.9897C73.108 19.9897 73.3266 19.9547 73.5102 19.8848C73.7026 19.8148 73.8687 19.7274 74.0174 19.6137L73.7113 19.1153C73.5976 19.1853 73.484 19.2552 73.3441 19.2989C73.2129 19.3514 73.073 19.3689 72.9331 19.3689C72.8282 19.3689 72.732 19.3514 72.6446 19.3164C72.5571 19.2815 72.4784 19.2377 72.4172 19.1678C72.356 19.0978 72.3035 19.0104 72.2686 18.9142C72.2336 18.8093 72.2161 18.6869 72.2161 18.5382V16.6757H73.825V16.0811L73.8337 16.0898ZM69.3392 14.2886C69.2868 14.3148 69.2343 14.3498 69.1906 14.3847C69.1469 14.4285 69.1207 14.4809 69.0944 14.5334C69.0682 14.5859 69.0595 14.6471 69.0595 14.717C69.0595 14.7782 69.0682 14.8394 69.0944 14.9006C69.1207 14.9531 69.1556 15.0056 69.1906 15.0493C69.2343 15.093 69.278 15.128 69.3392 15.1455C69.3917 15.1717 69.4529 15.1805 69.5229 15.1805C69.5841 15.1805 69.6453 15.1717 69.7065 15.1455C69.7677 15.1192 69.8115 15.093 69.8552 15.0493C69.8989 15.0056 69.9339 14.9619 69.9601 14.9006C69.9863 14.8482 69.9951 14.787 69.9951 14.717C69.9951 14.6471 69.9863 14.5859 69.9601 14.5334C69.9339 14.4722 69.8989 14.4285 69.8639 14.3847C69.8202 14.341 69.7678 14.306 69.7153 14.2798C69.6541 14.2536 69.5929 14.2448 69.5316 14.2448C69.4704 14.2448 69.4092 14.2536 69.348 14.2798M69.8552 16.0636H69.1994L69.1819 19.8848H69.8377L69.8552 16.0636ZM65.4569 16.0461H64.7136L63.6119 19.1678L62.5451 16.0374H61.8368L63.2009 19.8673H63.9704L65.0722 16.7631L66.1564 19.8761H66.9434L68.3337 16.0636H67.6429L66.5412 19.194L65.4569 16.0549V16.0461ZM57.7096 16.6582C57.867 16.7282 58.0069 16.8331 58.1206 16.9555C58.2342 17.0867 58.3217 17.2266 58.3829 17.3927C58.4441 17.5589 58.4791 17.7337 58.4791 17.9261C58.4791 18.1185 58.4441 18.2934 58.3829 18.4595C58.3217 18.6256 58.2342 18.7743 58.1118 18.8967C57.9981 19.0191 57.8582 19.1153 57.6921 19.194C57.526 19.264 57.3511 19.2989 57.15 19.2989C56.9576 19.2989 56.7827 19.264 56.6166 19.194C56.4592 19.1241 56.3193 19.0279 56.2056 18.9055C56.0919 18.783 56.0045 18.6344 55.9345 18.4682C55.8733 18.3021 55.8383 18.1185 55.8383 17.9261C55.8383 17.7337 55.8733 17.5501 55.9345 17.384C55.9957 17.2178 56.0919 17.0692 56.2056 16.9468C56.3193 16.8244 56.4592 16.7282 56.6166 16.6582C56.774 16.5883 56.9576 16.5533 57.15 16.5533C57.3423 16.5533 57.526 16.5883 57.6834 16.6582M56.4417 16.0898C56.2143 16.1948 56.0307 16.3434 55.882 16.5183V16.0111H55.2262L55.2088 21.4413H55.8646L55.8733 19.3252C56.022 19.5088 56.2143 19.6487 56.4329 19.7624C56.6603 19.8673 56.9139 19.9285 57.2199 19.9285C57.491 19.9285 57.7358 19.8848 57.9719 19.7799C58.208 19.6837 58.4091 19.5438 58.584 19.3689C58.7589 19.194 58.8901 18.9842 58.995 18.7393C59.0912 18.4945 59.1436 18.2322 59.1436 17.9436C59.1436 17.655 59.0912 17.384 58.995 17.1479C58.8988 16.903 58.7676 16.6932 58.5927 16.5183C58.4179 16.3434 58.2167 16.2035 57.9894 16.0986C57.762 15.9937 57.5085 15.9499 57.2374 15.9412C56.9314 15.9412 56.669 15.9937 56.4504 16.0986M53.3375 14.2273C53.2763 14.2536 53.2326 14.2886 53.1889 14.3235C53.1451 14.3673 53.1102 14.4197 53.0927 14.4722C53.0665 14.5246 53.0577 14.5946 53.0577 14.6558C53.0577 14.717 53.0665 14.7782 53.0927 14.8394C53.1189 14.8919 53.1451 14.9444 53.1889 14.9881C53.2326 15.0318 53.2763 15.0668 53.3375 15.0843C53.39 15.1105 53.4512 15.1192 53.5212 15.1192C53.5911 15.1192 53.6523 15.1105 53.7048 15.0843C53.766 15.058 53.8097 15.0318 53.8534 14.9881C53.8972 14.9444 53.9321 14.9006 53.9584 14.8394C53.9846 14.787 53.9933 14.7258 53.9933 14.6558C53.9933 14.5859 53.9846 14.5246 53.9584 14.4722C53.9321 14.411 53.8972 14.3673 53.8534 14.3235C53.8097 14.2798 53.766 14.2448 53.7048 14.2273C53.6436 14.2011 53.5824 14.1924 53.5212 14.1924C53.4599 14.1924 53.3987 14.2011 53.3375 14.2273ZM53.8447 16.0111H53.1889L53.1714 19.8323H53.8272L53.8447 16.0111ZM49.0004 14.0175H48.3446L48.3184 19.8148H48.9742L48.9829 17.6725C48.9829 17.4976 49.0179 17.3315 49.0704 17.2003C49.1316 17.0604 49.2103 16.938 49.3152 16.8418C49.4202 16.7457 49.5426 16.667 49.6737 16.6232C49.8136 16.5708 49.9623 16.5445 50.1109 16.5533C50.4432 16.5533 50.7055 16.6495 50.8892 16.8506C51.0728 17.043 51.1602 17.3228 51.1602 17.6813V19.8411H51.816V17.4627C51.8248 17.2353 51.7898 17.0255 51.7111 16.8331C51.6324 16.6407 51.5275 16.4833 51.3876 16.3522C51.2477 16.221 51.0815 16.1161 50.8804 16.0374C50.688 15.9587 50.4694 15.9237 50.2334 15.9237C50.1284 15.9237 50.0148 15.9237 49.8923 15.9499C49.7787 15.9674 49.665 16.0024 49.5601 16.0461C49.4551 16.0898 49.3502 16.1511 49.2453 16.221C49.1491 16.291 49.0616 16.3871 48.9829 16.4921V14.0175H49.0004ZM47.1991 16.3172C47.0155 16.186 46.7882 16.0898 46.5259 16.0111C46.2635 15.9325 45.975 15.8975 45.6777 15.8975C45.4416 15.8975 45.2317 15.9237 45.0481 15.9762C44.8557 16.0286 44.6983 16.1073 44.5584 16.2035C44.4273 16.2997 44.3223 16.4221 44.2436 16.5708C44.1737 16.7194 44.1387 16.8768 44.1387 17.0604C44.1387 17.349 44.2436 17.5938 44.4447 17.7775C44.6546 17.9611 44.9694 18.0835 45.4066 18.136L45.8525 18.1884C46.3684 18.2496 46.622 18.4333 46.622 18.7131C46.622 18.9055 46.5258 19.0454 46.351 19.1415C46.1673 19.2377 45.9225 19.2902 45.6077 19.2902C45.4503 19.2902 45.3017 19.2815 45.1705 19.2552C45.0393 19.2377 44.9257 19.2028 44.8207 19.1678C44.7158 19.1328 44.6196 19.0891 44.5322 19.0366C44.4447 18.9929 44.366 18.9317 44.2961 18.8792L43.9901 19.3689C44.1125 19.4651 44.2524 19.5438 44.3923 19.605C44.5322 19.6662 44.6721 19.7187 44.812 19.7536C44.9519 19.7886 45.0918 19.8236 45.223 19.8411C45.3541 19.8586 45.4853 19.8673 45.6077 19.8673C45.87 19.8673 46.1061 19.8411 46.316 19.7886C46.5259 19.7361 46.7007 19.6574 46.8494 19.5525C46.998 19.4476 47.1117 19.3252 47.1904 19.1765C47.2691 19.0279 47.3128 18.8617 47.3128 18.6781C47.3128 18.5207 47.2866 18.3808 47.2254 18.2584C47.1642 18.136 47.0855 18.031 46.9718 17.9436C46.8669 17.8562 46.727 17.7862 46.5696 17.725C46.4122 17.6638 46.2285 17.6201 46.0274 17.5938L45.5815 17.5326C45.3454 17.4977 45.1705 17.4452 45.0393 17.3752C44.9082 17.2965 44.847 17.1829 44.847 17.0342C44.847 16.8593 44.9257 16.7194 45.0831 16.6232C45.2405 16.5183 45.4503 16.4746 45.7127 16.4746C45.8351 16.4746 45.9575 16.4833 46.0799 16.5096C46.2023 16.5358 46.316 16.562 46.4209 16.597C46.5259 16.632 46.622 16.667 46.7182 16.7107C46.8057 16.7544 46.8843 16.7981 46.9456 16.8331L47.2341 16.3259L47.1991 16.3172ZM42.1713 16.0286C41.9789 16.1248 41.8128 16.2735 41.6816 16.4571V15.9587H41.0345L41.017 19.7799H41.6728V17.655C41.6728 17.4802 41.6991 17.314 41.7516 17.1741C41.804 17.0342 41.8652 16.9118 41.9614 16.8156C42.0489 16.7194 42.1538 16.6407 42.2762 16.5883C42.3986 16.5358 42.5298 16.5096 42.6784 16.5096C42.7834 16.5096 42.9058 16.5271 43.0194 16.5533C43.1419 16.5795 43.2468 16.6145 43.3343 16.667L43.4916 16.0199C43.3955 15.9762 43.2818 15.9412 43.1681 15.9237C43.0544 15.9062 42.932 15.8975 42.7921 15.8975C42.5647 15.8975 42.3549 15.9499 42.1625 16.0461M38.5425 16.5445C38.6736 16.597 38.7873 16.6757 38.8835 16.7719C38.9797 16.8681 39.0584 16.9817 39.1283 17.1217C39.1895 17.2616 39.2332 17.4102 39.2507 17.5763H36.9161C36.9423 17.4015 36.986 17.2528 37.0559 17.1217C37.1259 16.9905 37.2046 16.8681 37.3095 16.7719C37.4057 16.6757 37.5281 16.597 37.668 16.5445C37.808 16.4921 37.9566 16.4658 38.1227 16.4658C38.2801 16.4658 38.4201 16.4921 38.5512 16.5445M37.3795 16.0286C37.1434 16.1248 36.9423 16.2647 36.7762 16.4309C36.6013 16.6057 36.4701 16.8156 36.3739 17.0604C36.2777 17.3053 36.2253 17.5763 36.2253 17.8649C36.2253 18.1622 36.269 18.4333 36.3652 18.6781C36.4614 18.9229 36.5925 19.1328 36.7674 19.3077C36.9423 19.4826 37.1434 19.6225 37.3795 19.7187C37.6156 19.8148 37.8779 19.8673 38.1665 19.8673C38.3064 19.8673 38.4463 19.8673 38.5774 19.8411C38.7173 19.8236 38.8485 19.7886 38.9797 19.7449C39.1108 19.7012 39.242 19.64 39.3644 19.57C39.4868 19.4913 39.618 19.4039 39.7316 19.2902L39.3819 18.8355C39.2157 18.9754 39.0321 19.0891 38.8398 19.1678C38.6386 19.2465 38.4288 19.2902 38.2014 19.2815C38.0353 19.2815 37.8779 19.2552 37.738 19.2028C37.5893 19.159 37.4582 19.0803 37.3445 18.9842C37.2308 18.888 37.1346 18.7568 37.0559 18.6082C36.9773 18.4595 36.9335 18.2846 36.9073 18.0835H39.9153C39.9153 18.0835 39.9153 18.0223 39.9153 17.9786C39.9153 17.9349 39.9153 17.8911 39.9153 17.8562C39.9153 17.5589 39.8716 17.2965 39.7841 17.0517C39.6967 16.8069 39.5743 16.597 39.4169 16.4221C39.2595 16.2472 39.0671 16.1073 38.8485 16.0111C38.6299 15.915 38.3851 15.8625 38.1315 15.8625C37.8604 15.8625 37.6068 15.9062 37.3707 16.0024M33.2348 15.8712C33.1211 15.8887 33.0074 15.9237 32.8938 15.9674C32.7888 16.0111 32.6839 16.0724 32.579 16.1423C32.4828 16.221 32.3866 16.3084 32.3166 16.4134V15.915H31.6696L31.6521 19.7361H32.3079L32.3166 17.5938C32.3166 17.419 32.3516 17.2616 32.4128 17.1129C32.474 16.973 32.5527 16.8506 32.6577 16.7544C32.7626 16.6582 32.8763 16.5883 33.0162 16.5358C33.1561 16.4833 33.296 16.4571 33.4534 16.4571C33.7856 16.4571 34.048 16.5533 34.2316 16.7544C34.4152 16.9555 34.5027 17.2266 34.5027 17.5851V19.7449H35.1497V17.3665C35.1585 17.1391 35.1235 16.9293 35.0448 16.7369C34.9661 16.5445 34.8612 16.3871 34.7213 16.256C34.5814 16.1248 34.4152 16.0199 34.2229 15.9412C34.0305 15.8625 33.8119 15.8275 33.5758 15.8275C33.4621 15.8275 33.3484 15.8363 33.2348 15.8538M30.6115 15.8887H29.0026V14.682H28.3468V15.88H27.5336V16.4746H28.3468V18.3546C28.3468 18.5994 28.373 18.8093 28.4343 18.9842C28.4955 19.159 28.5829 19.3164 28.6966 19.4301C28.8102 19.5525 28.9502 19.64 29.1163 19.6924C29.2824 19.7536 29.466 19.7799 29.6759 19.7799C29.912 19.7799 30.1219 19.7449 30.3142 19.6749C30.5066 19.605 30.6728 19.5175 30.8214 19.4039L30.5154 18.9055C30.4017 18.9842 30.2793 19.0454 30.1481 19.0891C30.0169 19.1415 29.877 19.159 29.7371 19.159C29.6322 19.159 29.536 19.1415 29.4486 19.1066C29.3611 19.0716 29.2824 19.0279 29.2212 18.9579C29.16 18.888 29.1076 18.8093 29.0726 18.7043C29.0376 18.5994 29.0201 18.477 29.0201 18.3283V16.4658H30.6378V15.8625L30.6115 15.8887ZM25.6973 15.9412C25.505 16.0374 25.3388 16.186 25.2077 16.3697V15.8625H24.5606L24.5431 19.6837H25.1989L25.2077 17.5589C25.2077 17.384 25.2339 17.2266 25.2776 17.0779C25.3301 16.938 25.3913 16.8156 25.4875 16.7194C25.5749 16.6145 25.6798 16.5445 25.8023 16.4833C25.9247 16.4309 26.0559 16.4046 26.2045 16.4046C26.3182 16.4046 26.4318 16.4134 26.5455 16.4484C26.6679 16.4746 26.7641 16.5096 26.8603 16.562L27.0264 15.915C26.9215 15.8712 26.8166 15.8363 26.7029 15.8188C26.5892 15.8013 26.4668 15.7925 26.3269 15.7925C26.0996 15.7925 25.8897 15.845 25.6973 15.9412ZM21.7625 16.5008C21.9199 16.5708 22.0598 16.667 22.1735 16.7894C22.2871 16.9118 22.3746 17.0604 22.4445 17.2266C22.5057 17.3927 22.5407 17.5763 22.5407 17.7687C22.5407 17.9611 22.5057 18.1447 22.4445 18.3109C22.3833 18.477 22.2871 18.6256 22.1735 18.7481C22.0598 18.8705 21.9199 18.9667 21.7537 19.0366C21.5963 19.1066 21.4127 19.1415 21.2203 19.1415C21.028 19.1415 20.8443 19.1066 20.6869 19.0279C20.5208 18.9579 20.3896 18.853 20.276 18.7306C20.1623 18.6082 20.0749 18.4595 20.0049 18.2934C19.9437 18.1272 19.9175 17.9523 19.9175 17.76C19.9175 17.5676 19.9524 17.3927 20.0137 17.2266C20.0749 17.0604 20.1623 16.9118 20.2847 16.7894C20.3984 16.667 20.5383 16.5708 20.7044 16.5008C20.8706 16.4309 21.0455 16.3959 21.2466 16.3959C21.439 16.3959 21.6138 16.4309 21.78 16.5008M23.1878 15.8625H22.5232V16.3784C22.3746 16.1948 22.1822 16.0461 21.9636 15.9412C21.7363 15.8363 21.4827 15.7751 21.1766 15.7751C20.9056 15.7751 20.652 15.8188 20.4246 15.9237C20.1885 16.0199 19.9874 16.1598 19.8125 16.3347C19.6376 16.5096 19.5065 16.7194 19.4016 16.9643C19.3054 17.2091 19.2529 17.4714 19.2529 17.76C19.2529 18.0485 19.2966 18.3196 19.3928 18.5644C19.489 18.8093 19.6202 19.0191 19.7951 19.194C19.9699 19.3689 20.1711 19.5088 20.3984 19.6137C20.6345 19.7099 20.8793 19.7624 21.1504 19.7711C21.4564 19.7711 21.71 19.7187 21.9374 19.6137C22.156 19.5088 22.3483 19.3601 22.5057 19.1853V19.7012H23.1615L23.179 15.88L23.1878 15.8625ZM16.9969 16.4833C17.1543 16.5533 17.2942 16.6582 17.4079 16.7806C17.5216 16.903 17.609 17.0517 17.6702 17.2178C17.7314 17.384 17.7664 17.5589 17.7664 17.7512C17.7664 17.9436 17.7314 18.1185 17.6702 18.2846C17.609 18.4508 17.5216 18.5994 17.3992 18.7218C17.2768 18.8442 17.1456 18.9404 16.9794 19.0191C16.822 19.0891 16.6384 19.1241 16.4373 19.1241C16.2449 19.1241 16.07 19.0891 15.9039 19.0191C15.7465 18.9492 15.6066 18.853 15.493 18.7306C15.3793 18.6082 15.2918 18.4595 15.2219 18.2934C15.1607 18.1272 15.1257 17.9436 15.1257 17.7512C15.1257 17.5589 15.1607 17.3752 15.2219 17.2091C15.2831 17.043 15.3793 16.903 15.493 16.7719C15.6066 16.6495 15.7465 16.5533 15.9039 16.4833C16.0613 16.4134 16.2449 16.3784 16.4373 16.3784C16.6297 16.3784 16.8133 16.4134 16.9707 16.4833M15.729 15.915C15.5017 16.0199 15.3181 16.1685 15.1694 16.3434V15.8363H14.5136L14.4961 21.2664H15.1519L15.1607 19.1503C15.3093 19.3339 15.4929 19.4738 15.7203 19.5875C15.9389 19.6924 16.2012 19.7536 16.5073 19.7536C16.7783 19.7536 17.0232 19.7099 17.2593 19.605C17.4954 19.5088 17.6965 19.3689 17.8713 19.194C18.0462 19.0191 18.1774 18.8093 18.2823 18.5644C18.3785 18.3196 18.431 18.0573 18.431 17.7687C18.431 17.4802 18.3872 17.2091 18.2911 16.973C18.1861 16.7282 18.055 16.5183 17.8888 16.3434C17.714 16.1685 17.5128 16.0286 17.2855 15.9237C17.0581 15.8188 16.8046 15.7751 16.5335 15.7751C16.2274 15.7751 15.9651 15.8275 15.7465 15.9325M9.09225 15.7751C8.97858 15.7925 8.86489 15.8275 8.75122 15.8712C8.64629 15.915 8.54137 15.9762 8.43644 16.0461C8.34025 16.1161 8.24405 16.2123 8.1741 16.3172V15.8188H7.52704L7.50957 19.64H8.16537L8.1741 17.4977C8.1741 17.3228 8.20034 17.1566 8.26155 17.0167C8.32276 16.8768 8.40145 16.7544 8.50638 16.6582C8.61131 16.562 8.73373 16.4833 8.86489 16.4396C9.0048 16.3871 9.15345 16.3609 9.3021 16.3609C9.63438 16.3609 9.89671 16.4658 10.0803 16.6582C10.264 16.8506 10.3514 17.1304 10.3514 17.4802V19.64H10.9985V17.2616C11.0072 17.0342 10.9722 16.8244 10.8935 16.632C10.8148 16.4396 10.7099 16.2822 10.57 16.1423C10.4301 16.0111 10.2639 15.9062 10.0628 15.8275C9.87046 15.7488 9.65187 15.7138 9.41578 15.7138C9.3021 15.7138 9.18842 15.7226 9.07474 15.7401M6.03181 14H5.32353L5.2973 19.6312H6.00557L6.03181 14Z" fill="#231F20"/>
</g>
</svg>
