<svg width="45" height="45" viewBox="0 0 45 45" fill="none" xmlns="http://www.w3.org/2000/svg">
<g clip-path="url(#clip0_643_1135)">
<path d="M42.1875 44.2969H2.8125C1.64953 44.2969 0.703125 43.3505 0.703125 42.1875V2.8125C0.703125 1.64953 1.64953 0.703125 2.8125 0.703125H42.1875C43.3505 0.703125 44.2969 1.64953 44.2969 2.8125V42.1875C44.2969 43.3505 43.3505 44.2969 42.1875 44.2969ZM2.8125 2.10938C2.42438 2.10938 2.10938 2.42508 2.10938 2.8125V42.1875C2.10938 42.5749 2.42438 42.8906 2.8125 42.8906H42.1875C42.5756 42.8906 42.8906 42.5749 42.8906 42.1875V2.8125C42.8906 2.42508 42.5756 2.10938 42.1875 2.10938H2.8125Z" fill="#029DE0"/>
<path d="M4.92188 4.92188C5.3102 4.92188 5.625 4.60708 5.625 4.21875C5.625 3.83042 5.3102 3.51562 4.92188 3.51562C4.53355 3.51562 4.21875 3.83042 4.21875 4.21875C4.21875 4.60708 4.53355 4.92188 4.92188 4.92188Z" fill="#029DE0"/>
<path d="M7.73438 4.92188C8.1227 4.92188 8.4375 4.60708 8.4375 4.21875C8.4375 3.83042 8.1227 3.51562 7.73438 3.51562C7.34605 3.51562 7.03125 3.83042 7.03125 4.21875C7.03125 4.60708 7.34605 4.92188 7.73438 4.92188Z" fill="#029DE0"/>
<path d="M10.5469 4.92188C10.9352 4.92188 11.25 4.60708 11.25 4.21875C11.25 3.83042 10.9352 3.51562 10.5469 3.51562C10.1585 3.51562 9.84375 3.83042 9.84375 4.21875C9.84375 4.60708 10.1585 4.92188 10.5469 4.92188Z" fill="#029DE0"/>
<path d="M17.5781 18.9844H6.32812C5.9393 18.9844 5.625 18.6694 5.625 18.2812V9.84375C5.625 9.45562 5.9393 9.14062 6.32812 9.14062H17.5781C17.967 9.14062 18.2812 9.45562 18.2812 9.84375V18.2812C18.2812 18.6694 17.967 18.9844 17.5781 18.9844ZM7.03125 17.5781H16.875V10.5469H7.03125V17.5781Z" fill="#029DE0"/>
<path d="M10.5469 16.875C10.4273 16.875 10.3078 16.8448 10.2002 16.7836C9.98016 16.6592 9.84375 16.425 9.84375 16.1719V11.9531C9.84375 11.7 9.97945 11.4659 10.2002 11.3414C10.4203 11.2163 10.691 11.2191 10.909 11.3506L14.4246 13.4599C14.6362 13.5872 14.7656 13.8157 14.7656 14.0625C14.7656 14.3093 14.6355 14.5385 14.4246 14.6651L10.909 16.7745C10.7979 16.8413 10.672 16.875 10.5469 16.875ZM11.25 13.1949V14.9302L12.6963 14.0625L11.25 13.1949Z" fill="#029DE0"/>
<path d="M38.6719 11.9531H23.2031C22.8143 11.9531 22.5 11.6381 22.5 11.25C22.5 10.8619 22.8143 10.5469 23.2031 10.5469H38.6719C39.0607 10.5469 39.375 10.8619 39.375 11.25C39.375 11.6381 39.0607 11.9531 38.6719 11.9531Z" fill="#029DE0"/>
<path d="M38.6719 14.7656H23.2031C22.8143 14.7656 22.5 14.4506 22.5 14.0625C22.5 13.6744 22.8143 13.3594 23.2031 13.3594H38.6719C39.0607 13.3594 39.375 13.6744 39.375 14.0625C39.375 14.4506 39.0607 14.7656 38.6719 14.7656Z" fill="#029DE0"/>
<path d="M33.75 17.5781H23.2031C22.8143 17.5781 22.5 17.2631 22.5 16.875C22.5 16.4869 22.8143 16.1719 23.2031 16.1719H33.75C34.1388 16.1719 34.4531 16.4869 34.4531 16.875C34.4531 17.2631 34.1388 17.5781 33.75 17.5781Z" fill="#029DE0"/>
<path d="M17.5781 30.2344H6.32812C5.9393 30.2344 5.625 29.9194 5.625 29.5312V21.0938C5.625 20.7056 5.9393 20.3906 6.32812 20.3906H17.5781C17.967 20.3906 18.2812 20.7056 18.2812 21.0938V29.5312C18.2812 29.9194 17.967 30.2344 17.5781 30.2344ZM7.03125 28.8281H16.875V21.7969H7.03125V28.8281Z" fill="#029DE0"/>
<path d="M10.5469 28.125C10.4273 28.125 10.3078 28.0948 10.2002 28.0336C9.98016 27.9091 9.84375 27.675 9.84375 27.4219V23.2031C9.84375 22.95 9.97945 22.7159 10.2002 22.5914C10.4203 22.4662 10.691 22.4698 10.909 22.6005L14.4246 24.7099C14.6362 24.8372 14.7656 25.0657 14.7656 25.3125C14.7656 25.5593 14.6355 25.7885 14.4246 25.9151L10.909 28.0244C10.7979 28.0912 10.672 28.125 10.5469 28.125ZM11.25 24.4448V26.1802L12.6963 25.3125L11.25 24.4448Z" fill="#029DE0"/>
<path d="M38.6719 23.2031H23.2031C22.8143 23.2031 22.5 22.8881 22.5 22.5C22.5 22.1119 22.8143 21.7969 23.2031 21.7969H38.6719C39.0607 21.7969 39.375 22.1119 39.375 22.5C39.375 22.8881 39.0607 23.2031 38.6719 23.2031Z" fill="#029DE0"/>
<path d="M38.6719 26.0156H23.2031C22.8143 26.0156 22.5 25.7006 22.5 25.3125C22.5 24.9244 22.8143 24.6094 23.2031 24.6094H38.6719C39.0607 24.6094 39.375 24.9244 39.375 25.3125C39.375 25.7006 39.0607 26.0156 38.6719 26.0156Z" fill="#029DE0"/>
<path d="M33.75 28.8281H23.2031C22.8143 28.8281 22.5 28.5131 22.5 28.125C22.5 27.7369 22.8143 27.4219 23.2031 27.4219H33.75C34.1388 27.4219 34.4531 27.7369 34.4531 28.125C34.4531 28.5131 34.1388 28.8281 33.75 28.8281Z" fill="#029DE0"/>
<path d="M17.5781 41.4844H6.32812C5.9393 41.4844 5.625 41.1694 5.625 40.7812V32.3438C5.625 31.9556 5.9393 31.6406 6.32812 31.6406H17.5781C17.967 31.6406 18.2812 31.9556 18.2812 32.3438V40.7812C18.2812 41.1694 17.967 41.4844 17.5781 41.4844ZM7.03125 40.0781H16.875V33.0469H7.03125V40.0781Z" fill="#029DE0"/>
<path d="M10.5469 39.375C10.4273 39.375 10.3078 39.3448 10.2002 39.2836C9.98016 39.1591 9.84375 38.925 9.84375 38.6719V34.4531C9.84375 34.2 9.97945 33.9659 10.2002 33.8414C10.4203 33.7162 10.691 33.7198 10.909 33.8505L14.4246 35.9599C14.6362 36.0872 14.7656 36.3157 14.7656 36.5625C14.7656 36.8093 14.6355 37.0385 14.4246 37.1651L10.909 39.2744C10.7979 39.3412 10.672 39.375 10.5469 39.375ZM11.25 35.6948V37.4302L12.6963 36.5625L11.25 35.6948Z" fill="#029DE0"/>
<path d="M38.6719 34.4531H23.2031C22.8143 34.4531 22.5 34.1381 22.5 33.75C22.5 33.3619 22.8143 33.0469 23.2031 33.0469H38.6719C39.0607 33.0469 39.375 33.3619 39.375 33.75C39.375 34.1381 39.0607 34.4531 38.6719 34.4531Z" fill="#029DE0"/>
<path d="M38.6719 37.2656H23.2031C22.8143 37.2656 22.5 36.9506 22.5 36.5625C22.5 36.1744 22.8143 35.8594 23.2031 35.8594H38.6719C39.0607 35.8594 39.375 36.1744 39.375 36.5625C39.375 36.9506 39.0607 37.2656 38.6719 37.2656Z" fill="#029DE0"/>
<path d="M33.75 40.0781H23.2031C22.8143 40.0781 22.5 39.7631 22.5 39.375C22.5 38.9869 22.8143 38.6719 23.2031 38.6719H33.75C34.1388 38.6719 34.4531 38.9869 34.4531 39.375C34.4531 39.7631 34.1388 40.0781 33.75 40.0781Z" fill="#029DE0"/>
<path d="M43.5938 7.73438H1.40625C1.01742 7.73438 0.703125 7.41937 0.703125 7.03125C0.703125 6.64312 1.01742 6.32812 1.40625 6.32812H43.5938C43.9826 6.32812 44.2969 6.64312 44.2969 7.03125C44.2969 7.41937 43.9826 7.73438 43.5938 7.73438Z" fill="#029DE0"/>
</g>
<defs>
<clipPath id="clip0_643_1135">
<rect width="45" height="45" fill="white"/>
</clipPath>
</defs>
</svg>
