<svg width="45" height="45" viewBox="0 0 45 45" fill="none" xmlns="http://www.w3.org/2000/svg">
<g clip-path="url(#clip0_643_1192)">
<path d="M6.12308 17.4425C6.12308 17.0542 6.4379 16.7394 6.8262 16.7394H24.5851C24.9734 16.7394 25.2882 17.0542 25.2882 17.4425C25.2882 17.8308 24.9734 18.1456 24.5851 18.1456H6.8262C6.4379 18.1456 6.12308 17.8308 6.12308 17.4425ZM22.6919 37.6737H6.8262C6.4379 37.6737 6.12308 37.9885 6.12308 38.3768C6.12308 38.7651 6.4379 39.08 6.8262 39.08H22.6919C23.0802 39.08 23.395 38.7651 23.395 38.3768C23.395 37.9885 23.0802 37.6737 22.6919 37.6737ZM6.8262 12.912H19.5745C19.9628 12.912 20.2776 12.5972 20.2776 12.2089C20.2776 11.8206 19.9628 11.5058 19.5745 11.5058H6.8262C6.4379 11.5058 6.12308 11.8206 6.12308 12.2089C6.12308 12.5972 6.4379 12.912 6.8262 12.912ZM44.5695 42.6822L42.7698 44.5371C42.4706 44.8454 42.0719 45.0004 41.6728 45.0004C41.2892 45.0004 40.9052 44.8572 40.6087 44.5697L35.9484 40.0475C35.8195 40.1992 35.6275 40.2957 35.4128 40.2957H31.4114V44.2969C31.4114 44.6852 31.0966 45 30.7083 45H0.703125C0.314824 45 0 44.6852 0 44.2969V5.40756C0 5.01926 0.314824 4.70443 0.703125 4.70443H4.70452V0.703125C4.70452 0.314824 5.01935 0 5.40765 0H30.5513C30.7378 0 30.9166 0.0740918 31.0485 0.205928L35.9099 5.06733C36.0417 5.19926 36.1158 5.37803 36.1158 5.56453V23.702C36.8648 25.0844 37.2906 26.6665 37.2906 28.346C37.2906 30.2121 36.765 31.9576 35.8545 33.4427L37.8447 35.3956C38.0367 35.3067 38.2466 35.257 38.4649 35.2536C38.8753 35.2513 39.26 35.4003 39.5523 35.684L44.5371 40.5211C45.1417 41.1082 45.1562 42.0776 44.5695 42.6822ZM35.0249 34.5987C34.8361 34.8253 34.6374 35.0433 34.4293 35.252L36.1774 36.9674L36.7926 36.3333L35.0249 34.5987ZM35.8843 28.346C35.8843 23.7285 32.1278 19.9719 27.5103 19.9719C22.8928 19.9719 19.1362 23.7285 19.1362 28.346C19.1362 32.9636 22.8928 36.7201 27.5103 36.7201C32.1278 36.7201 35.8843 32.9636 35.8843 28.346ZM26.5499 9.56593H29.0107L26.5499 7.10508V9.56593ZM31.2544 4.86141H33.7152L31.2544 2.40064V4.86141ZM6.11077 4.70443H25.8468C26.0333 4.70443 26.2121 4.77853 26.344 4.91036L31.2054 9.77186C31.3372 9.90378 31.4113 10.0825 31.4113 10.2691V19.3782C32.6703 19.9281 33.7921 20.7352 34.7096 21.7333V6.26766H30.5513C30.163 6.26766 29.8482 5.95283 29.8482 5.56453V1.40625H6.11077V4.70443ZM30.0051 39.5924V37.8034C29.2083 38.0137 28.3722 38.1263 27.5103 38.1263C24.1553 38.1263 21.1899 36.4281 19.4274 33.8464H6.8262C6.4379 33.8464 6.12308 33.5316 6.12308 33.1433C6.12308 32.755 6.4379 32.4402 6.8262 32.4402H18.6293C18.0877 31.2701 17.7704 29.9759 17.7337 28.6128H6.8262C6.4379 28.6128 6.12308 28.298 6.12308 27.9097C6.12308 27.5214 6.4379 27.2065 6.8262 27.2065H17.7967C17.9581 25.8225 18.4093 24.5261 19.0883 23.3792H6.8262C6.4379 23.3792 6.12308 23.0643 6.12308 22.676C6.12308 22.2877 6.4379 21.9729 6.8262 21.9729H20.0976C21.8926 19.8881 24.5498 18.5656 27.5103 18.5656C28.3722 18.5656 29.2083 18.6782 30.0051 18.8885V10.9721H25.8468C25.4585 10.9721 25.1437 10.6573 25.1437 10.269V6.11068H1.40625V43.5938H30.0051V39.5924ZM34.7096 38.8893V37.4974L33.3637 36.1767C32.7626 36.6272 32.1078 37.0096 31.4112 37.3138V38.8893H34.7096ZM43.5576 41.5303L38.5728 36.6932C38.5445 36.6657 38.5116 36.6597 38.4881 36.6597C38.4874 36.6597 38.4867 36.6597 38.4861 36.6597C38.4625 36.6601 38.4285 36.6666 38.4002 36.6957L36.6004 38.5506C36.5551 38.5972 36.5563 38.6779 36.6029 38.7232L41.5878 43.5603C41.6345 43.6056 41.7153 43.6043 41.7605 43.5577L43.5603 41.7029C43.6056 41.6563 43.6043 41.5756 43.5576 41.5303ZM34.7314 28.346C34.7314 32.3278 31.4921 35.5671 27.5103 35.5671C23.5285 35.5671 20.2892 32.3278 20.2892 28.346C20.2892 24.3643 23.5285 21.125 27.5103 21.125C31.4921 21.125 34.7314 24.3643 34.7314 28.346ZM33.3251 28.346C33.3251 25.1398 30.7165 22.5312 27.5103 22.5312C24.304 22.5312 21.6954 25.1398 21.6954 28.346C21.6954 31.5523 24.304 34.1609 27.5103 34.1609C30.7165 34.1609 33.3251 31.5523 33.3251 28.346Z" fill="#029DE0"/>
</g>
<defs>
<clipPath id="clip0_643_1192">
<rect width="45" height="45" fill="white"/>
</clipPath>
</defs>
</svg>
