<svg width="45" height="45" viewBox="0 0 45 45" fill="none" xmlns="http://www.w3.org/2000/svg">
<g clip-path="url(#clip0_643_1123)">
<path d="M39.8932 10.3878L36.5267 7.02149V2.00021C36.5267 0.897275 35.6294 0 34.5264 0H6.88895C5.79981 0 4.9137 0.886113 4.9137 1.97525V35.1127C4.9137 36.2019 5.79981 37.088 6.88895 37.088H8.00622V38.1887C8.00622 39.2779 8.89233 40.164 9.98156 40.164H14.2665C14.6305 40.164 14.9257 39.8689 14.9257 39.5048C14.9257 39.1407 14.6305 38.8456 14.2665 38.8456H9.98156C9.61927 38.8456 9.32458 38.5509 9.32458 38.1887V11.6858C9.32458 11.3217 9.02944 11.0267 8.6654 11.0267C8.30135 11.0267 8.00622 11.3217 8.00622 11.6858V35.7696H6.88895C6.52675 35.7696 6.23206 35.4749 6.23206 35.1127V1.97525C6.23206 1.61306 6.52675 1.31836 6.88895 1.31836H34.5265C34.9025 1.31836 35.2085 1.62422 35.2085 2.00021V5.70322L32.7741 3.26909C32.6505 3.14552 32.4829 3.07608 32.3081 3.07608H9.98156C8.89233 3.07608 8.00622 3.9622 8.00622 5.05134V8.61732C8.00622 8.98145 8.30135 9.2765 8.6654 9.2765C9.02944 9.2765 9.32458 8.98145 9.32458 8.61732V5.05125C9.32458 4.68905 9.61927 4.39436 9.98156 4.39436H31.6488V10.8527C31.6488 11.2168 31.9438 11.5118 32.3079 11.5119L38.7679 11.513V38.1887C38.7679 38.5508 38.4732 38.8455 38.111 38.8455H33.8773C33.5133 38.8455 33.2182 39.1406 33.2182 39.5047C33.2182 39.8689 33.5133 40.1639 33.8773 40.1639H38.111C39.2002 40.1639 40.0863 39.2778 40.0863 38.1887V10.854C40.0863 10.6792 40.0169 10.5115 39.8932 10.3878ZM32.9672 10.1936V5.32652L37.8354 10.1945L32.9672 10.1936Z" fill="#029DE0"/>
<path d="M31.9474 15.421H16.1779C15.8138 15.421 15.5187 15.716 15.5187 16.0801C15.5187 16.4443 15.8138 16.7393 16.1779 16.7393H31.9474C32.3114 16.7393 32.6065 16.4443 32.6065 16.0801C32.6065 15.716 32.3114 15.421 31.9474 15.421Z" fill="#029DE0"/>
<path d="M31.9474 19.3085H16.1779C15.8138 19.3085 15.5187 19.6036 15.5187 19.9677C15.5187 20.3318 15.8138 20.6269 16.1779 20.6269H31.9474C32.3114 20.6269 32.6065 20.3318 32.6065 19.9677C32.6065 19.6036 32.3114 19.3085 31.9474 19.3085Z" fill="#029DE0"/>
<path d="M31.9474 23.2736H28.8319C28.4679 23.2736 28.1727 23.5687 28.1727 23.9328C28.1727 24.2969 28.4679 24.592 28.8319 24.592H31.9474C32.3114 24.592 32.6065 24.2969 32.6065 23.9328C32.6065 23.5687 32.3114 23.2736 31.9474 23.2736Z" fill="#029DE0"/>
<path d="M25.7296 24.592C26.0937 24.592 26.3888 24.2969 26.3888 23.9328C26.3888 23.5687 26.0937 23.2736 25.7296 23.2736H16.1779C15.8138 23.2736 15.5187 23.5687 15.5187 23.9328C15.5187 24.2969 15.8138 24.592 16.1779 24.592H25.7296Z" fill="#029DE0"/>
<path d="M26.4791 37.3546L24.7218 39.1118V32.7392C24.7218 32.3751 24.4267 32.08 24.0626 32.08C23.6986 32.08 23.4034 32.3751 23.4034 32.7392V39.1118L21.6461 37.3546C21.3887 37.0973 20.9713 37.0972 20.714 37.3547C20.4565 37.6121 20.4565 38.0295 20.714 38.2869L23.5965 41.1693C23.7252 41.298 23.8939 41.3623 24.0626 41.3623C24.2313 41.3623 24.4 41.298 24.5287 41.1693L27.4112 38.2869C27.6687 38.0294 27.6687 37.612 27.4112 37.3547C27.1539 37.0972 26.7365 37.0973 26.4791 37.3546Z" fill="#029DE0"/>
<path d="M24.0626 28.4423C19.4975 28.4423 15.7834 32.1562 15.7834 36.7211C15.7834 41.286 19.4975 44.9999 24.0626 44.9999C28.6277 44.9999 32.3418 41.286 32.3418 36.7211C32.3418 32.1562 28.6277 28.4423 24.0626 28.4423ZM24.0626 43.6816C20.2244 43.6816 17.1017 40.5592 17.1017 36.7212C17.1017 32.8832 20.2244 29.7607 24.0626 29.7607C27.9008 29.7607 31.0234 32.8832 31.0234 36.7212C31.0234 40.5592 27.9008 43.6816 24.0626 43.6816Z" fill="#029DE0"/>
</g>
<defs>
<clipPath id="clip0_643_1123">
<rect width="45" height="45" fill="white"/>
</clipPath>
</defs>
</svg>
