<svg width="45" height="45" viewBox="0 0 45 45" fill="none" xmlns="http://www.w3.org/2000/svg">
<path fill-rule="evenodd" clip-rule="evenodd" d="M11.6473 12.7069C10.5701 13.5555 9.21094 14.0625 7.73438 14.0625C4.24195 14.0625 1.40625 11.2268 1.40625 7.73438C1.40625 4.24195 4.24195 1.40625 7.73438 1.40625C11.2268 1.40625 14.0625 4.24195 14.0625 7.73438C14.0625 9.24398 13.5323 10.6312 12.6485 11.7197L16.0207 15.0919C17.7525 13.5752 20.0201 12.6562 22.5 12.6562C24.9638 12.6562 27.2173 13.5633 28.9441 15.0609L32.322 11.6831C31.4557 10.601 30.9375 9.22781 30.9375 7.73438C30.9375 4.24195 33.7732 1.40625 37.2656 1.40625C40.758 1.40625 43.5938 4.24195 43.5938 7.73438C43.5938 11.2268 40.758 14.0625 37.2656 14.0625C35.7722 14.0625 34.399 13.5443 33.3169 12.678L29.9391 16.0559C31.4367 17.7827 32.3438 20.0362 32.3438 22.5C32.3438 24.9799 31.4248 27.2475 29.9081 28.9793L33.2803 32.3515C34.3688 31.4677 35.756 30.9375 37.2656 30.9375C40.758 30.9375 43.5938 33.7732 43.5938 37.2656C43.5938 40.758 40.758 43.5938 37.2656 43.5938C33.7732 43.5938 30.9375 40.758 30.9375 37.2656C30.9375 35.7891 31.4445 34.4299 32.2931 33.3527L28.909 29.9693C28.6059 30.2295 28.2867 30.472 27.9534 30.6942C27.8648 30.7962 27.7474 30.8728 27.6138 30.9108C26.1232 31.8199 24.3724 32.3438 22.5 32.3438C20.6276 32.3438 18.8768 31.8199 17.3862 30.9108C17.2526 30.8728 17.1352 30.7962 17.0466 30.6942C16.6999 30.4629 16.3695 30.2105 16.0559 29.9391L12.678 33.3169C13.5443 34.399 14.0625 35.7722 14.0625 37.2656C14.0625 40.758 11.2268 43.5938 7.73438 43.5938C4.24195 43.5938 1.40625 40.758 1.40625 37.2656C1.40625 33.7732 4.24195 30.9375 7.73438 30.9375C9.22781 30.9375 10.601 31.4557 11.6831 32.322L15.0609 28.9441C13.5633 27.2173 12.6562 24.9638 12.6562 22.5C12.6562 20.0531 13.5513 17.8137 15.0307 16.091L11.6473 12.7069ZM6.32812 12.4523C6.77391 12.5852 7.2457 12.6562 7.73438 12.6562C8.22305 12.6562 8.69484 12.5852 9.14062 12.4523V11.25C9.14062 10.8619 8.82562 10.5469 8.4375 10.5469H7.03125C6.64313 10.5469 6.32812 10.8619 6.32812 11.25V12.4523ZM35.8594 41.9836C36.3052 42.1165 36.777 42.1875 37.2656 42.1875C37.7543 42.1875 38.2261 42.1165 38.6719 41.9836V40.7812C38.6719 40.3931 38.3569 40.0781 37.9688 40.0781H36.5625C36.1744 40.0781 35.8594 40.3931 35.8594 40.7812V41.9836ZM28.4653 16.5347C26.9374 15.0075 24.828 14.0625 22.5 14.0625C20.1579 14.0625 18.0366 15.0195 16.5073 16.5628L16.5023 16.5677C14.9941 18.0921 14.0625 20.1881 14.0625 22.5C14.0625 24.828 15.0075 26.9374 16.5347 28.4653C16.6451 28.5757 16.759 28.6826 16.875 28.7866C16.8862 27.4964 17.403 26.261 18.3164 25.3477C19.2396 24.4245 20.4912 23.9062 21.7969 23.9062H23.2031C24.5088 23.9062 25.7604 24.4245 26.6836 25.3477C27.597 26.261 28.1138 27.4964 28.125 28.7866C28.2298 28.6931 28.3324 28.5968 28.4323 28.4977L28.4372 28.4927C29.9805 26.9634 30.9375 24.8421 30.9375 22.5C30.9375 20.172 29.9925 18.0626 28.4653 16.5347ZM22.5 15.4688C24.4406 15.4688 26.0156 17.0437 26.0156 18.9844C26.0156 20.925 24.4406 22.5 22.5 22.5C20.5594 22.5 18.9844 20.925 18.9844 18.9844C18.9844 17.0437 20.5594 15.4688 22.5 15.4688ZM22.5 16.875C21.3356 16.875 20.3906 17.82 20.3906 18.9844C20.3906 20.1488 21.3356 21.0938 22.5 21.0938C23.6644 21.0938 24.6094 20.1488 24.6094 18.9844C24.6094 17.82 23.6644 16.875 22.5 16.875ZM10.5469 11.7731C11.8216 10.883 12.6562 9.4057 12.6562 7.73438C12.6562 5.0182 10.4505 2.8125 7.73438 2.8125C5.0182 2.8125 2.8125 5.0182 2.8125 7.73438C2.8125 9.4057 3.64711 10.883 4.92188 11.7731V11.25C4.92188 10.0849 5.86617 9.14062 7.03125 9.14062H8.4375C9.60258 9.14062 10.5469 10.0849 10.5469 11.25V11.7731ZM7.73438 4.21875C8.89875 4.21875 9.84375 5.16375 9.84375 6.32812C9.84375 7.4925 8.89875 8.4375 7.73438 8.4375C6.57 8.4375 5.625 7.4925 5.625 6.32812C5.625 5.16375 6.57 4.21875 7.73438 4.21875ZM7.73438 5.625C7.34625 5.625 7.03125 5.94 7.03125 6.32812C7.03125 6.71625 7.34625 7.03125 7.73438 7.03125C8.1225 7.03125 8.4375 6.71625 8.4375 6.32812C8.4375 5.94 8.1225 5.625 7.73438 5.625ZM40.0781 41.3044C41.3529 40.4142 42.1875 38.937 42.1875 37.2656C42.1875 34.5495 39.9818 32.3438 37.2656 32.3438C34.5495 32.3438 32.3438 34.5495 32.3438 37.2656C32.3438 38.937 33.1784 40.4142 34.4531 41.3044V40.7812C34.4531 39.6162 35.3974 38.6719 36.5625 38.6719H37.9688C39.1338 38.6719 40.0781 39.6162 40.0781 40.7812V41.3044ZM37.2656 33.75C38.43 33.75 39.375 34.695 39.375 35.8594C39.375 37.0238 38.43 37.9688 37.2656 37.9688C36.1012 37.9688 35.1562 37.0238 35.1562 35.8594C35.1562 34.695 36.1012 33.75 37.2656 33.75ZM37.2656 35.1562C36.8775 35.1562 36.5625 35.4712 36.5625 35.8594C36.5625 36.2475 36.8775 36.5625 37.2656 36.5625C37.6538 36.5625 37.9688 36.2475 37.9688 35.8594C37.9688 35.4712 37.6538 35.1562 37.2656 35.1562ZM10.5469 41.3044C11.8216 40.4142 12.6562 38.937 12.6562 37.2656C12.6562 34.5495 10.4505 32.3438 7.73438 32.3438C5.0182 32.3438 2.8125 34.5495 2.8125 37.2656C2.8125 38.937 3.64711 40.4142 4.92188 41.3044V40.7812C4.92188 39.6162 5.86617 38.6719 7.03125 38.6719H8.4375C9.60258 38.6719 10.5469 39.6162 10.5469 40.7812V41.3044ZM7.73438 33.75C8.89875 33.75 9.84375 34.695 9.84375 35.8594C9.84375 37.0238 8.89875 37.9688 7.73438 37.9688C6.57 37.9688 5.625 37.0238 5.625 35.8594C5.625 34.695 6.57 33.75 7.73438 33.75ZM7.73438 35.1562C7.34625 35.1562 7.03125 35.4712 7.03125 35.8594C7.03125 36.2475 7.34625 36.5625 7.73438 36.5625C8.1225 36.5625 8.4375 36.2475 8.4375 35.8594C8.4375 35.4712 8.1225 35.1562 7.73438 35.1562ZM40.0781 11.7731C41.3529 10.883 42.1875 9.4057 42.1875 7.73438C42.1875 5.0182 39.9818 2.8125 37.2656 2.8125C34.5495 2.8125 32.3438 5.0182 32.3438 7.73438C32.3438 9.4057 33.1784 10.883 34.4531 11.7731V11.25C34.4531 10.0849 35.3974 9.14062 36.5625 9.14062H37.9688C39.1338 9.14062 40.0781 10.0849 40.0781 11.25V11.7731ZM37.2656 4.21875C38.43 4.21875 39.375 5.16375 39.375 6.32812C39.375 7.4925 38.43 8.4375 37.2656 8.4375C36.1012 8.4375 35.1562 7.4925 35.1562 6.32812C35.1562 5.16375 36.1012 4.21875 37.2656 4.21875ZM37.2656 5.625C36.8775 5.625 36.5625 5.94 36.5625 6.32812C36.5625 6.71625 36.8775 7.03125 37.2656 7.03125C37.6538 7.03125 37.9688 6.71625 37.9688 6.32812C37.9688 5.94 37.6538 5.625 37.2656 5.625ZM35.8594 12.4523C36.3052 12.5852 36.777 12.6562 37.2656 12.6562C37.7543 12.6562 38.2261 12.5852 38.6719 12.4523V11.25C38.6719 10.8619 38.3569 10.5469 37.9688 10.5469H36.5625C36.1744 10.5469 35.8594 10.8619 35.8594 11.25V12.4523ZM18.2812 29.8069C19.5223 30.5262 20.9637 30.9375 22.5 30.9375C24.0363 30.9375 25.4777 30.5262 26.7188 29.8069V28.8281C26.7188 27.8958 26.3482 27.0014 25.6894 26.3419C25.0298 25.683 24.1355 25.3125 23.2031 25.3125H21.7969C20.8645 25.3125 19.9702 25.683 19.3106 26.3419C18.6518 27.0014 18.2812 27.8958 18.2812 28.8281V29.8069ZM6.32812 41.9836C6.77391 42.1165 7.2457 42.1875 7.73438 42.1875C8.22305 42.1875 8.69484 42.1165 9.14062 41.9836V40.7812C9.14062 40.3931 8.82562 40.0781 8.4375 40.0781H7.03125C6.64313 40.0781 6.32812 40.3931 6.32812 40.7812V41.9836Z" fill="#029DE0"/>
</svg>
