<svg width="45" height="45" viewBox="0 0 45 45" fill="none" xmlns="http://www.w3.org/2000/svg">
<path d="M36.5909 10.5679C36.2268 10.5679 35.9317 10.863 35.9317 11.2271V40.8182C35.9317 40.8433 35.9114 40.8636 35.8863 40.8636H12.6364C12.2724 40.8636 11.9772 41.1587 11.9772 41.5227C11.9772 41.8868 12.2724 42.1819 12.6364 42.1819H35.8863C36.6383 42.1819 37.2501 41.5702 37.2501 40.8182V11.2271C37.2501 10.863 36.9549 10.5679 36.5909 10.5679Z" fill="#029DE0"/>
<path d="M38.7045 2.81813H32.6366L30.4243 0.605831C30.0336 0.215157 29.5143 0 28.9618 0H6.29545C5.54345 0 4.93173 0.61172 4.93173 1.36371V40.8182C4.93173 41.5701 5.54345 42.1819 6.29545 42.1819H7.74986V43.6363C7.74986 44.3883 8.36158 45 9.11358 45H38.7045C39.4565 45 40.0682 44.3883 40.0682 43.6363V4.18193C40.0682 3.42994 39.4565 2.81813 38.7045 2.81813ZM29.5 1.546L35.704 7.74995H29.5454C29.5203 7.74995 29.5 7.72964 29.5 7.7046V1.546ZM38.7498 43.6364C38.7498 43.6614 38.7295 43.6817 38.7045 43.6817H9.11358C9.08853 43.6817 9.06822 43.6614 9.06822 43.6364V42.182H9.81793C10.182 42.182 10.4771 41.8868 10.4771 41.5228C10.4771 41.1587 10.182 40.8636 9.81793 40.8636H6.29545C6.2704 40.8636 6.25009 40.8433 6.25009 40.8182V1.36371C6.25009 1.33866 6.2704 1.31836 6.29545 1.31836H28.1817V7.7046C28.1817 8.45659 28.7934 9.06831 29.5454 9.06831H36.5909C36.9549 9.06831 37.2501 8.77317 37.2501 8.40913V8.28828C37.2501 7.73588 37.0349 7.21645 36.6442 6.82578L33.9549 4.13649H38.7045C38.7295 4.13649 38.7498 4.1568 38.7498 4.18184V43.6364Z" fill="#029DE0"/>
<path d="M18.0342 7.53042C17.7768 7.27298 17.3594 7.27298 17.102 7.53042L13.3729 11.2595C13.3552 11.2772 13.3264 11.2772 13.3088 11.2595L11.8222 9.77295H12.9665C13.3306 9.77295 13.6257 9.47781 13.6257 9.11377C13.6257 8.74972 13.3306 8.45459 12.9665 8.45459H11.2272C11.0164 8.45459 10.8174 8.50407 10.639 8.58985L10.2842 8.23504C10.0267 7.9776 9.60935 7.9776 9.35201 8.23504C9.09458 8.49247 9.09458 8.90986 9.35201 9.16721L9.87021 9.68541C9.866 9.72909 9.86353 9.77339 9.86353 9.81821V14.0455C9.86353 14.7975 10.4753 15.4092 11.2272 15.4092H15.4545C16.2065 15.4092 16.8182 14.7975 16.8182 14.0455V9.67855L18.0342 8.46259C18.2916 8.20515 18.2916 7.78776 18.0342 7.53042ZM15.4999 14.0456C15.4999 14.0706 15.4796 14.0909 15.4545 14.0909H11.2272C11.2022 14.0909 11.1819 14.0706 11.1819 14.0456V10.9969L12.3766 12.1916C12.6425 12.4575 12.9917 12.5905 13.3409 12.5905C13.6901 12.5905 14.0393 12.4575 14.3052 12.1916L15.4999 10.9969V14.0456Z" fill="#029DE0"/>
<path d="M15.4546 17.6136H11.2273C10.4753 17.6136 9.86356 18.2253 9.86356 18.9773V23.2046C9.86356 23.9566 10.4753 24.5683 11.2273 24.5683H15.4546C16.2065 24.5683 16.8183 23.9566 16.8183 23.2046V18.9773C16.8183 18.2254 16.2065 17.6136 15.4546 17.6136ZM15.4999 23.2046C15.4999 23.2296 15.4796 23.2499 15.4546 23.2499H11.2273C11.2022 23.2499 11.1819 23.2296 11.1819 23.2046V18.9773C11.1819 18.9523 11.2022 18.9319 11.2273 18.9319H15.4546C15.4796 18.9319 15.4999 18.9523 15.4999 18.9773V23.2046Z" fill="#029DE0"/>
<path d="M15.4546 26.7727H11.2273C10.4753 26.7727 9.86356 27.3844 9.86356 28.1364V32.3637C9.86356 33.1157 10.4753 33.7274 11.2273 33.7274H15.4546C16.2065 33.7274 16.8183 33.1156 16.8183 32.3637V28.1364C16.8183 27.3844 16.2065 26.7727 15.4546 26.7727ZM15.4999 32.3637C15.4999 32.3888 15.4796 32.4091 15.4546 32.4091H11.2273C11.2022 32.4091 11.1819 32.3887 11.1819 32.3637V28.1364C11.1819 28.1114 11.2022 28.0911 11.2273 28.0911H15.4546C15.4796 28.0911 15.4999 28.1114 15.4999 28.1364V32.3637Z" fill="#029DE0"/>
<path d="M26.0227 9.86365H19.6818C19.3178 9.86365 19.0226 10.1588 19.0226 10.5228C19.0226 10.8869 19.3177 11.182 19.6818 11.182H26.0227C26.3867 11.182 26.6819 10.8869 26.6819 10.5228C26.6819 10.1588 26.3867 9.86365 26.0227 9.86365Z" fill="#029DE0"/>
<path d="M31.6591 12.6818H19.6818C19.3178 12.6818 19.0226 12.977 19.0226 13.341C19.0226 13.705 19.3177 14.0002 19.6818 14.0002H31.6591C32.0231 14.0002 32.3182 13.705 32.3182 13.341C32.3182 12.977 32.0232 12.6818 31.6591 12.6818Z" fill="#029DE0"/>
<path d="M26.0227 19.0227H19.6818C19.3178 19.0227 19.0226 19.3178 19.0226 19.6819C19.0226 20.0459 19.3177 20.3411 19.6818 20.3411H26.0227C26.3867 20.3411 26.6819 20.0459 26.6819 19.6819C26.6819 19.3178 26.3867 19.0227 26.0227 19.0227Z" fill="#029DE0"/>
<path d="M31.6591 21.8409H19.6818C19.3178 21.8409 19.0226 22.136 19.0226 22.5001C19.0226 22.8641 19.3177 23.1592 19.6818 23.1592H31.6591C32.0231 23.1592 32.3182 22.8641 32.3182 22.5001C32.3182 22.136 32.0232 21.8409 31.6591 21.8409Z" fill="#029DE0"/>
<path d="M26.0227 28.1818H19.6818C19.3178 28.1818 19.0226 28.4769 19.0226 28.8409C19.0226 29.205 19.3177 29.5001 19.6818 29.5001H26.0227C26.3867 29.5001 26.6819 29.205 26.6819 28.8409C26.6819 28.4769 26.3867 28.1818 26.0227 28.1818Z" fill="#029DE0"/>
<path d="M31.6591 30.9999H19.6818C19.3178 30.9999 19.0226 31.295 19.0226 31.6591C19.0226 32.0231 19.3177 32.3182 19.6818 32.3182H31.6591C32.0231 32.3182 32.3182 32.0231 32.3182 31.6591C32.3182 31.295 32.0232 30.9999 31.6591 30.9999Z" fill="#029DE0"/>
</svg>
