<?xml version="1.0" encoding="UTF-8"?>
<svg id="Layer_2" data-name="Layer 2" xmlns="http://www.w3.org/2000/svg" viewBox="0 0 32 32.05">
  <defs>
    <style>
      .cls-1 {
        fill: #fff;
        fill-rule: evenodd;
        stroke-width: 0px;
      }
    </style>
  </defs>
  <g id="Layer_1-2" data-name="Layer 1">
    <g>
      <path class="cls-1" d="M25.53,28.84c4.42-2.63,8.31-10.87,5.55-18.34C29.08,5.13,23.3-.37,15.73.02,5.49.37-3.08,10.56,1.07,21.53c3.3,8.72,14.87,14.41,24.45,7.31M13.12,9.06c2.7-.11,5.42-.07,8.13.11,3.28.22,4.25.49,4.55,3.86.17,1.91.25,6.13-.34,7.8-.73,2.1-3.75,1.95-6.26,2.04-2.73.1-5.58.09-8.29-.11-3.3-.25-4.32-.47-4.57-3.88-.13-1.8-.24-6.35.34-7.86.79-2.06,3.98-1.85,6.43-1.95Z"/>
      <polygon class="cls-1" points="14.09 18.87 19.17 16.01 14.13 13.03 14.09 18.87"/>
    </g>
  </g>
</svg>